# xmcd
#
# Track frame offsets:
#	150
#	16998
#	25857
#	37226
#
# Disc length: 719 seconds
#
# Revision: 1
# Processed by: cddbd v1.5.2PL0 Copyright (c) Steve Scherf et al.
# Submitted via: audiograbber 1.83.01
#
DISCID=2a02cd04
DTITLE=The Cash - Boppin, Shakin, Rollin and Movin
DYEAR=2006
DGENRE=Rock and Roll
TTITLE0=My Girl
TTITLE1=Come on let`s go
TTITLE2=High school confidential
TTITLE3=Hungry eyes
EXTD=
EXTT0=
EXTT1=
EXTT2=
EXTT3=
PLAYORDER=
